solid box
  facet normal 0.0 0.0 1.0
    outer loop
      vertex -0.03 -0.03 -0.15
      vertex 0.03 -0.03 -0.15
      vertex 0.03 0.03 -0.15
    endloop
  endfacet
  facet normal 0.0 0.0 1.0
    outer loop
      vertex -0.03 -0.03 -0.15
      vertex 0.03 0.03 -0.15
      vertex -0.03 0.03 -0.15
    endloop
  endfacet
  facet normal 0.0 0.0 -1.0
    outer loop
      vertex -0.03 -0.03 0.15
      vertex 0.03 0.03 0.15
      vertex 0.03 -0.03 0.15
    endloop
  endfacet
  facet normal 0.0 0.0 -1.0
    outer loop
      vertex -0.03 -0.03 0.15
      vertex -0.03 0.03 0.15
      vertex 0.03 0.03 0.15
    endloop
  endfacet
  facet normal 0.0 -1.0 0.0
    outer loop
      vertex -0.03 0.03 -0.15
      vertex 0.03 0.03 -0.15
      vertex 0.03 0.03 0.15
    endloop
  endfacet
  facet normal 0.0 -1.0 0.0
    outer loop
      vertex -0.03 0.03 -0.15
      vertex 0.03 0.03 0.15
      vertex -0.03 0.03 0.15
    endloop
  endfacet
  facet normal 0.0 1.0 0.0
    outer loop
      vertex -0.03 -0.03 -0.15
      vertex 0.03 -0.03 0.15
      vertex 0.03 -0.03 -0.15
    endloop
  endfacet
  facet normal 0.0 1.0 0.0
    outer loop
      vertex -0.03 -0.03 -0.15
      vertex -0.03 -0.03 0.15
      vertex 0.03 -0.03 0.15
    endloop
  endfacet
  facet normal 1.0 0.0 0.0
    outer loop
      vertex -0.03 -0.03 -0.15
      vertex -0.03 0.03 -0.15
      vertex -0.03 0.03 0.15
    endloop
  endfacet
  facet normal 1.0 0.0 0.0
    outer loop
      vertex -0.03 -0.03 -0.15
      vertex -0.03 0.03 0.15
      vertex -0.03 -0.03 0.15
    endloop
  endfacet
  facet normal -1.0 0.0 0.0
    outer loop
      vertex 0.03 -0.03 -0.15
      vertex 0.03 -0.03 0.15
      vertex 0.03 0.03 0.15
    endloop
  endfacet
  facet normal -1.0 0.0 0.0
    outer loop
      vertex 0.03 -0.03 -0.15
      vertex 0.03 0.03 0.15
      vertex 0.03 0.03 -0.15
    endloop
  endfacet
endsolid box
