solid box
  facet normal 0.0 0.0 1.0
    outer loop
      vertex -0.06 -0.06 -0.04
      vertex 0.06 -0.06 -0.04
      vertex 0.06 0.06 -0.04
    endloop
  endfacet
  facet normal 0.0 0.0 1.0
    outer loop
      vertex -0.06 -0.06 -0.04
      vertex 0.06 0.06 -0.04
      vertex -0.06 0.06 -0.04
    endloop
  endfacet
  facet normal 0.0 0.0 -1.0
    outer loop
      vertex -0.06 -0.06 0.04
      vertex 0.06 0.06 0.04
      vertex 0.06 -0.06 0.04
    endloop
  endfacet
  facet normal 0.0 0.0 -1.0
    outer loop
      vertex -0.06 -0.06 0.04
      vertex -0.06 0.06 0.04
      vertex 0.06 0.06 0.04
    endloop
  endfacet
  facet normal 0.0 -1.0 0.0
    outer loop
      vertex -0.06 0.06 -0.04
      vertex 0.06 0.06 -0.04
      vertex 0.06 0.06 0.04
    endloop
  endfacet
  facet normal 0.0 -1.0 0.0
    outer loop
      vertex -0.06 0.06 -0.04
      vertex 0.06 0.06 0.04
      vertex -0.06 0.06 0.04
    endloop
  endfacet
  facet normal 0.0 1.0 0.0
    outer loop
      vertex -0.06 -0.06 -0.04
      vertex 0.06 -0.06 0.04
      vertex 0.06 -0.06 -0.04
    endloop
  endfacet
  facet normal 0.0 1.0 0.0
    outer loop
      vertex -0.06 -0.06 -0.04
      vertex -0.06 -0.06 0.04
      vertex 0.06 -0.06 0.04
    endloop
  endfacet
  facet normal 1.0 0.0 0.0
    outer loop
      vertex -0.06 -0.06 -0.04
      vertex -0.06 0.06 -0.04
      vertex -0.06 0.06 0.04
    endloop
  endfacet
  facet normal 1.0 0.0 0.0
    outer loop
      vertex -0.06 -0.06 -0.04
      vertex -0.06 0.06 0.04
      vertex -0.06 -0.06 0.04
    endloop
  endfacet
  facet normal -1.0 0.0 0.0
    outer loop
      vertex 0.06 -0.06 -0.04
      vertex 0.06 -0.06 0.04
      vertex 0.06 0.06 0.04
    endloop
  endfacet
  facet normal -1.0 0.0 0.0
    outer loop
      vertex 0.06 -0.06 -0.04
      vertex 0.06 0.06 0.04
      vertex 0.06 0.06 -0.04
    endloop
  endfacet
endsolid box
