solid cylinder
  facet normal 0.9951847266721968 0.09801714032956052 0.0
    outer loop
      vertex 0.08 0.0 -0.03
      vertex 0.07846282243225844 0.01560722576129026 -0.03
      vertex 0.07846282243225844 0.01560722576129026 0.03
    endloop
  endfacet
  facet normal 0.9951847266721968 0.09801714032956052 -0.0
    outer loop
      vertex 0.08 0.0 -0.03
      vertex 0.07846282243225844 0.01560722576129026 0.03
      vertex 0.08 0.0 0.03
    endloop
  endfacet
  facet normal 0.9569403357322089 0.29028467725446216 0.0
    outer loop
      vertex 0.07846282243225844 0.01560722576129026 -0.03
      vertex 0.07391036260090295 0.030614674589207184 -0.03
      vertex 0.07391036260090295 0.030614674589207184 0.03
    endloop
  endfacet
  facet normal 0.9569403357322089 0.29028467725446216 -0.0
    outer loop
      vertex 0.07846282243225844 0.01560722576129026 -0.03
      vertex 0.07391036260090295 0.030614674589207184 0.03
      vertex 0.07846282243225844 0.01560722576129026 0.03
    endloop
  endfacet
  facet normal 0.8819212643483549 0.47139673682599803 0.0
    outer loop
      vertex 0.07391036260090295 0.030614674589207184 -0.03
      vertex 0.06651756898420362 0.04444561864156817 -0.03
      vertex 0.06651756898420362 0.04444561864156817 0.03
    endloop
  endfacet
  facet normal 0.8819212643483549 0.47139673682599803 -0.0
    outer loop
      vertex 0.07391036260090295 0.030614674589207184 -0.03
      vertex 0.06651756898420362 0.04444561864156817 0.03
      vertex 0.07391036260090295 0.030614674589207184 0.03
    endloop
  endfacet
  facet normal 0.7730104533627371 0.6343932841636453 0.0
    outer loop
      vertex 0.06651756898420362 0.04444561864156817 -0.03
      vertex 0.05656854249492381 0.056568542494923796 -0.03
      vertex 0.05656854249492381 0.056568542494923796 0.03
    endloop
  endfacet
  facet normal 0.7730104533627371 0.6343932841636453 -0.0
    outer loop
      vertex 0.06651756898420362 0.04444561864156817 -0.03
      vertex 0.05656854249492381 0.056568542494923796 0.03
      vertex 0.06651756898420362 0.04444561864156817 0.03
    endloop
  endfacet
  facet normal 0.6343932841636457 0.7730104533627367 0.0
    outer loop
      vertex 0.05656854249492381 0.056568542494923796 -0.03
      vertex 0.04444561864156819 0.06651756898420362 -0.03
      vertex 0.04444561864156819 0.06651756898420362 0.03
    endloop
  endfacet
  facet normal 0.6343932841636457 0.7730104533627367 -0.0
    outer loop
      vertex 0.05656854249492381 0.056568542494923796 -0.03
      vertex 0.04444561864156819 0.06651756898420362 0.03
      vertex 0.05656854249492381 0.056568542494923796 0.03
    endloop
  endfacet
  facet normal 0.47139673682599775 0.8819212643483549 0.0
    outer loop
      vertex 0.04444561864156819 0.06651756898420362 -0.03
      vertex 0.030614674589207188 0.07391036260090295 -0.03
      vertex 0.030614674589207188 0.07391036260090295 0.03
    endloop
  endfacet
  facet normal 0.47139673682599775 0.8819212643483549 -0.0
    outer loop
      vertex 0.04444561864156819 0.06651756898420362 -0.03
      vertex 0.030614674589207188 0.07391036260090295 0.03
      vertex 0.04444561864156819 0.06651756898420362 0.03
    endloop
  endfacet
  facet normal 0.2902846772544622 0.9569403357322089 0.0
    outer loop
      vertex 0.030614674589207188 0.07391036260090295 -0.03
      vertex 0.015607225761290268 0.07846282243225844 -0.03
      vertex 0.015607225761290268 0.07846282243225844 0.03
    endloop
  endfacet
  facet normal 0.2902846772544622 0.9569403357322089 -0.0
    outer loop
      vertex 0.030614674589207188 0.07391036260090295 -0.03
      vertex 0.015607225761290268 0.07846282243225844 0.03
      vertex 0.030614674589207188 0.07391036260090295 0.03
    endloop
  endfacet
  facet normal 0.0980171403295605 0.9951847266721968 0.0
    outer loop
      vertex 0.015607225761290268 0.07846282243225844 -0.03
      vertex 4.898587196589413e-18 0.08 -0.03
      vertex 4.898587196589413e-18 0.08 0.03
    endloop
  endfacet
  facet normal 0.0980171403295605 0.9951847266721968 -0.0
    outer loop
      vertex 0.015607225761290268 0.07846282243225844 -0.03
      vertex 4.898587196589413e-18 0.08 0.03
      vertex 0.015607225761290268 0.07846282243225844 0.03
    endloop
  endfacet
  facet normal -0.09801714032956052 0.9951847266721968 0.0
    outer loop
      vertex 4.898587196589413e-18 0.08 -0.03
      vertex -0.015607225761290255 0.07846282243225844 -0.03
      vertex -0.015607225761290255 0.07846282243225844 0.03
    endloop
  endfacet
  facet normal -0.09801714032956052 0.9951847266721968 0.0
    outer loop
      vertex 4.898587196589413e-18 0.08 -0.03
      vertex -0.015607225761290255 0.07846282243225844 0.03
      vertex 4.898587196589413e-18 0.08 0.03
    endloop
  endfacet
  facet normal -0.29028467725446216 0.9569403357322089 0.0
    outer loop
      vertex -0.015607225761290255 0.07846282243225844 -0.03
      vertex -0.030614674589207178 0.07391036260090295 -0.03
      vertex -0.030614674589207178 0.07391036260090295 0.03
    endloop
  endfacet
  facet normal -0.29028467725446216 0.9569403357322089 0.0
    outer loop
      vertex -0.015607225761290255 0.07846282243225844 -0.03
      vertex -0.030614674589207178 0.07391036260090295 0.03
      vertex -0.015607225761290255 0.07846282243225844 0.03
    endloop
  endfacet
  facet normal -0.4713967368259975 0.881921264348355 0.0
    outer loop
      vertex -0.030614674589207178 0.07391036260090295 -0.03
      vertex -0.04444561864156816 0.06651756898420363 -0.03
      vertex -0.04444561864156816 0.06651756898420363 0.03
    endloop
  endfacet
  facet normal -0.4713967368259975 0.881921264348355 0.0
    outer loop
      vertex -0.030614674589207178 0.07391036260090295 -0.03
      vertex -0.04444561864156816 0.06651756898420363 0.03
      vertex -0.030614674589207178 0.07391036260090295 0.03
    endloop
  endfacet
  facet normal -0.6343932841636454 0.7730104533627371 0.0
    outer loop
      vertex -0.04444561864156816 0.06651756898420363 -0.03
      vertex -0.056568542494923796 0.05656854249492381 -0.03
      vertex -0.056568542494923796 0.05656854249492381 0.03
    endloop
  endfacet
  facet normal -0.6343932841636454 0.7730104533627371 0.0
    outer loop
      vertex -0.04444561864156816 0.06651756898420363 -0.03
      vertex -0.056568542494923796 0.05656854249492381 0.03
      vertex -0.04444561864156816 0.06651756898420363 0.03
    endloop
  endfacet
  facet normal -0.7730104533627367 0.6343932841636459 0.0
    outer loop
      vertex -0.056568542494923796 0.05656854249492381 -0.03
      vertex -0.06651756898420363 0.04444561864156817 -0.03
      vertex -0.06651756898420363 0.04444561864156817 0.03
    endloop
  endfacet
  facet normal -0.7730104533627367 0.6343932841636459 0.0
    outer loop
      vertex -0.056568542494923796 0.05656854249492381 -0.03
      vertex -0.06651756898420363 0.04444561864156817 0.03
      vertex -0.056568542494923796 0.05656854249492381 0.03
    endloop
  endfacet
  facet normal -0.881921264348355 0.4713967368259975 0.0
    outer loop
      vertex -0.06651756898420363 0.04444561864156817 -0.03
      vertex -0.07391036260090295 0.03061467458920719 -0.03
      vertex -0.07391036260090295 0.03061467458920719 0.03
    endloop
  endfacet
  facet normal -0.881921264348355 0.4713967368259975 0.0
    outer loop
      vertex -0.06651756898420363 0.04444561864156817 -0.03
      vertex -0.07391036260090295 0.03061467458920719 0.03
      vertex -0.06651756898420363 0.04444561864156817 0.03
    endloop
  endfacet
  facet normal -0.9569403357322087 0.2902846772544625 0.0
    outer loop
      vertex -0.07391036260090295 0.03061467458920719 -0.03
      vertex -0.07846282243225844 0.015607225761290288 -0.03
      vertex -0.07846282243225844 0.015607225761290288 0.03
    endloop
  endfacet
  facet normal -0.9569403357322087 0.2902846772544625 0.0
    outer loop
      vertex -0.07391036260090295 0.03061467458920719 -0.03
      vertex -0.07846282243225844 0.015607225761290288 0.03
      vertex -0.07391036260090295 0.03061467458920719 0.03
    endloop
  endfacet
  facet normal -0.9951847266721969 0.09801714032956042 0.0
    outer loop
      vertex -0.07846282243225844 0.015607225761290288 -0.03
      vertex -0.08 9.797174393178826e-18 -0.03
      vertex -0.08 9.797174393178826e-18 0.03
    endloop
  endfacet
  facet normal -0.9951847266721969 0.09801714032956042 0.0
    outer loop
      vertex -0.07846282243225844 0.015607225761290288 -0.03
      vertex -0.08 9.797174393178826e-18 0.03
      vertex -0.07846282243225844 0.015607225761290288 0.03
    endloop
  endfacet
  facet normal -0.9951847266721969 -0.09801714032956041 0.0
    outer loop
      vertex -0.08 9.797174393178826e-18 -0.03
      vertex -0.07846282243225844 -0.01560722576129027 -0.03
      vertex -0.07846282243225844 -0.01560722576129027 0.03
    endloop
  endfacet
  facet normal -0.9951847266721969 -0.09801714032956041 0.0
    outer loop
      vertex -0.08 9.797174393178826e-18 -0.03
      vertex -0.07846282243225844 -0.01560722576129027 0.03
      vertex -0.08 9.797174393178826e-18 0.03
    endloop
  endfacet
  facet normal -0.9569403357322087 -0.2902846772544625 0.0
    outer loop
      vertex -0.07846282243225844 -0.01560722576129027 -0.03
      vertex -0.07391036260090295 -0.030614674589207174 -0.03
      vertex -0.07391036260090295 -0.030614674589207174 0.03
    endloop
  endfacet
  facet normal -0.9569403357322087 -0.2902846772544625 0.0
    outer loop
      vertex -0.07846282243225844 -0.01560722576129027 -0.03
      vertex -0.07391036260090295 -0.030614674589207174 0.03
      vertex -0.07846282243225844 -0.01560722576129027 0.03
    endloop
  endfacet
  facet normal -0.8819212643483552 -0.4713967368259974 0.0
    outer loop
      vertex -0.07391036260090295 -0.030614674589207174 -0.03
      vertex -0.06651756898420363 -0.04444561864156816 -0.03
      vertex -0.06651756898420363 -0.04444561864156816 0.03
    endloop
  endfacet
  facet normal -0.8819212643483552 -0.4713967368259974 0.0
    outer loop
      vertex -0.07391036260090295 -0.030614674589207174 -0.03
      vertex -0.06651756898420363 -0.04444561864156816 0.03
      vertex -0.07391036260090295 -0.030614674589207174 0.03
    endloop
  endfacet
  facet normal -0.7730104533627372 -0.6343932841636452 0.0
    outer loop
      vertex -0.06651756898420363 -0.04444561864156816 -0.03
      vertex -0.05656854249492382 -0.056568542494923796 -0.03
      vertex -0.05656854249492382 -0.056568542494923796 0.03
    endloop
  endfacet
  facet normal -0.7730104533627372 -0.6343932841636452 0.0
    outer loop
      vertex -0.06651756898420363 -0.04444561864156816 -0.03
      vertex -0.05656854249492382 -0.056568542494923796 0.03
      vertex -0.06651756898420363 -0.04444561864156816 0.03
    endloop
  endfacet
  facet normal -0.6343932841636452 -0.7730104533627372 0.0
    outer loop
      vertex -0.05656854249492382 -0.056568542494923796 -0.03
      vertex -0.04444561864156817 -0.06651756898420362 -0.03
      vertex -0.04444561864156817 -0.06651756898420362 0.03
    endloop
  endfacet
  facet normal -0.6343932841636452 -0.7730104533627372 0.0
    outer loop
      vertex -0.05656854249492382 -0.056568542494923796 -0.03
      vertex -0.04444561864156817 -0.06651756898420362 0.03
      vertex -0.05656854249492382 -0.056568542494923796 0.03
    endloop
  endfacet
  facet normal -0.47139673682599775 -0.881921264348355 0.0
    outer loop
      vertex -0.04444561864156817 -0.06651756898420362 -0.03
      vertex -0.030614674589207226 -0.07391036260090292 -0.03
      vertex -0.030614674589207226 -0.07391036260090292 0.03
    endloop
  endfacet
  facet normal -0.47139673682599775 -0.881921264348355 0.0
    outer loop
      vertex -0.04444561864156817 -0.06651756898420362 -0.03
      vertex -0.030614674589207226 -0.07391036260090292 0.03
      vertex -0.04444561864156817 -0.06651756898420362 0.03
    endloop
  endfacet
  facet normal -0.29028467725446283 -0.9569403357322087 0.0
    outer loop
      vertex -0.030614674589207226 -0.07391036260090292 -0.03
      vertex -0.015607225761290294 -0.07846282243225843 -0.03
      vertex -0.015607225761290294 -0.07846282243225843 0.03
    endloop
  endfacet
  facet normal -0.29028467725446283 -0.9569403357322087 0.0
    outer loop
      vertex -0.030614674589207226 -0.07391036260090292 -0.03
      vertex -0.015607225761290294 -0.07846282243225843 0.03
      vertex -0.030614674589207226 -0.07391036260090292 0.03
    endloop
  endfacet
  facet normal -0.09801714032956128 -0.9951847266721968 0.0
    outer loop
      vertex -0.015607225761290294 -0.07846282243225843 -0.03
      vertex -1.4695761589768237e-17 -0.08 -0.03
      vertex -1.4695761589768237e-17 -0.08 0.03
    endloop
  endfacet
  facet normal -0.09801714032956128 -0.9951847266721968 0.0
    outer loop
      vertex -0.015607225761290294 -0.07846282243225843 -0.03
      vertex -1.4695761589768237e-17 -0.08 0.03
      vertex -0.015607225761290294 -0.07846282243225843 0.03
    endloop
  endfacet
  facet normal 0.09801714032956042 -0.9951847266721969 0.0
    outer loop
      vertex -1.4695761589768237e-17 -0.08 -0.03
      vertex 0.015607225761290264 -0.07846282243225844 -0.03
      vertex 0.015607225761290264 -0.07846282243225844 0.03
    endloop
  endfacet
  facet normal 0.09801714032956042 -0.9951847266721969 0.0
    outer loop
      vertex -1.4695761589768237e-17 -0.08 -0.03
      vertex 0.015607225761290264 -0.07846282243225844 0.03
      vertex -1.4695761589768237e-17 -0.08 0.03
    endloop
  endfacet
  facet normal 0.2902846772544627 -0.9569403357322087 0.0
    outer loop
      vertex 0.015607225761290264 -0.07846282243225844 -0.03
      vertex 0.030614674589207202 -0.07391036260090293 -0.03
      vertex 0.030614674589207202 -0.07391036260090293 0.03
    endloop
  endfacet
  facet normal 0.2902846772544627 -0.9569403357322087 0.0
    outer loop
      vertex 0.015607225761290264 -0.07846282243225844 -0.03
      vertex 0.030614674589207202 -0.07391036260090293 0.03
      vertex 0.015607225761290264 -0.07846282243225844 0.03
    endloop
  endfacet
  facet normal 0.47139673682599786 -0.8819212643483549 0.0
    outer loop
      vertex 0.030614674589207202 -0.07391036260090293 -0.03
      vertex 0.044445618641568145 -0.06651756898420363 -0.03
      vertex 0.044445618641568145 -0.06651756898420363 0.03
    endloop
  endfacet
  facet normal 0.47139673682599786 -0.8819212643483549 0.0
    outer loop
      vertex 0.030614674589207202 -0.07391036260090293 -0.03
      vertex 0.044445618641568145 -0.06651756898420363 0.03
      vertex 0.030614674589207202 -0.07391036260090293 0.03
    endloop
  endfacet
  facet normal 0.6343932841636449 -0.7730104533627374 0.0
    outer loop
      vertex 0.044445618641568145 -0.06651756898420363 -0.03
      vertex 0.05656854249492379 -0.05656854249492382 -0.03
      vertex 0.05656854249492379 -0.05656854249492382 0.03
    endloop
  endfacet
  facet normal 0.6343932841636449 -0.7730104533627374 0.0
    outer loop
      vertex 0.044445618641568145 -0.06651756898420363 -0.03
      vertex 0.05656854249492379 -0.05656854249492382 0.03
      vertex 0.044445618641568145 -0.06651756898420363 0.03
    endloop
  endfacet
  facet normal 0.773010453362737 -0.6343932841636454 0.0
    outer loop
      vertex 0.05656854249492379 -0.05656854249492382 -0.03
      vertex 0.06651756898420362 -0.04444561864156817 -0.03
      vertex 0.06651756898420362 -0.04444561864156817 0.03
    endloop
  endfacet
  facet normal 0.773010453362737 -0.6343932841636454 0.0
    outer loop
      vertex 0.05656854249492379 -0.05656854249492382 -0.03
      vertex 0.06651756898420362 -0.04444561864156817 0.03
      vertex 0.05656854249492379 -0.05656854249492382 0.03
    endloop
  endfacet
  facet normal 0.8819212643483548 -0.4713967368259979 0.0
    outer loop
      vertex 0.06651756898420362 -0.04444561864156817 -0.03
      vertex 0.07391036260090292 -0.030614674589207233 -0.03
      vertex 0.07391036260090292 -0.030614674589207233 0.03
    endloop
  endfacet
  facet normal 0.8819212643483548 -0.4713967368259979 0.0
    outer loop
      vertex 0.06651756898420362 -0.04444561864156817 -0.03
      vertex 0.07391036260090292 -0.030614674589207233 0.03
      vertex 0.06651756898420362 -0.04444561864156817 0.03
    endloop
  endfacet
  facet normal 0.9569403357322087 -0.2902846772544628 0.0
    outer loop
      vertex 0.07391036260090292 -0.030614674589207233 -0.03
      vertex 0.07846282243225843 -0.015607225761290299 -0.03
      vertex 0.07846282243225843 -0.015607225761290299 0.03
    endloop
  endfacet
  facet normal 0.9569403357322087 -0.2902846772544628 0.0
    outer loop
      vertex 0.07391036260090292 -0.030614674589207233 -0.03
      vertex 0.07846282243225843 -0.015607225761290299 0.03
      vertex 0.07391036260090292 -0.030614674589207233 0.03
    endloop
  endfacet
  facet normal 0.9951847266721968 -0.09801714032956128 0.0
    outer loop
      vertex 0.07846282243225843 -0.015607225761290299 -0.03
      vertex 0.08 -1.959434878635765e-17 -0.03
      vertex 0.08 -1.959434878635765e-17 0.03
    endloop
  endfacet
  facet normal 0.9951847266721968 -0.09801714032956128 0.0
    outer loop
      vertex 0.07846282243225843 -0.015607225761290299 -0.03
      vertex 0.08 -1.959434878635765e-17 0.03
      vertex 0.07846282243225843 -0.015607225761290299 0.03
    endloop
  endfacet
  facet normal 0.0 0.0 1.0
    outer loop
      vertex 0.08 0.0 0.03
      vertex 0.07846282243225844 0.01560722576129026 0.03
      vertex 0.0 0.0 0.03
    endloop
  endfacet
  facet normal 0.0 0.0 1.0
    outer loop
      vertex 0.07846282243225844 0.01560722576129026 0.03
      vertex 0.07391036260090295 0.030614674589207184 0.03
      vertex 0.0 0.0 0.03
    endloop
  endfacet
  facet normal 0.0 0.0 1.0
    outer loop
      vertex 0.07391036260090295 0.030614674589207184 0.03
      vertex 0.06651756898420362 0.04444561864156817 0.03
      vertex 0.0 0.0 0.03
    endloop
  endfacet
  facet normal 0.0 0.0 1.0
    outer loop
      vertex 0.06651756898420362 0.04444561864156817 0.03
      vertex 0.05656854249492381 0.056568542494923796 0.03
      vertex 0.0 0.0 0.03
    endloop
  endfacet
  facet normal 0.0 0.0 1.0
    outer loop
      vertex 0.05656854249492381 0.056568542494923796 0.03
      vertex 0.04444561864156819 0.06651756898420362 0.03
      vertex 0.0 0.0 0.03
    endloop
  endfacet
  facet normal 0.0 0.0 1.0
    outer loop
      vertex 0.04444561864156819 0.06651756898420362 0.03
      vertex 0.030614674589207188 0.07391036260090295 0.03
      vertex 0.0 0.0 0.03
    endloop
  endfacet
  facet normal 0.0 0.0 1.0
    outer loop
      vertex 0.030614674589207188 0.07391036260090295 0.03
      vertex 0.015607225761290268 0.07846282243225844 0.03
      vertex 0.0 0.0 0.03
    endloop
  endfacet
  facet normal 0.0 0.0 1.0
    outer loop
      vertex 0.015607225761290268 0.07846282243225844 0.03
      vertex 4.898587196589413e-18 0.08 0.03
      vertex 0.0 0.0 0.03
    endloop
  endfacet
  facet normal 0.0 0.0 1.0
    outer loop
      vertex 4.898587196589413e-18 0.08 0.03
      vertex -0.015607225761290255 0.07846282243225844 0.03
      vertex 0.0 0.0 0.03
    endloop
  endfacet
  facet normal 0.0 0.0 1.0
    outer loop
      vertex -0.015607225761290255 0.07846282243225844 0.03
      vertex -0.030614674589207178 0.07391036260090295 0.03
      vertex 0.0 0.0 0.03
    endloop
  endfacet
  facet normal 0.0 0.0 1.0
    outer loop
      vertex -0.030614674589207178 0.07391036260090295 0.03
      vertex -0.04444561864156816 0.06651756898420363 0.03
      vertex 0.0 0.0 0.03
    endloop
  endfacet
  facet normal 0.0 0.0 1.0
    outer loop
      vertex -0.04444561864156816 0.06651756898420363 0.03
      vertex -0.056568542494923796 0.05656854249492381 0.03
      vertex 0.0 0.0 0.03
    endloop
  endfacet
  facet normal 0.0 0.0 1.0
    outer loop
      vertex -0.056568542494923796 0.05656854249492381 0.03
      vertex -0.06651756898420363 0.04444561864156817 0.03
      vertex 0.0 0.0 0.03
    endloop
  endfacet
  facet normal 0.0 0.0 1.0
    outer loop
      vertex -0.06651756898420363 0.04444561864156817 0.03
      vertex -0.07391036260090295 0.03061467458920719 0.03
      vertex 0.0 0.0 0.03
    endloop
  endfacet
  facet normal 0.0 0.0 1.0
    outer loop
      vertex -0.07391036260090295 0.03061467458920719 0.03
      vertex -0.07846282243225844 0.015607225761290288 0.03
      vertex 0.0 0.0 0.03
    endloop
  endfacet
  facet normal 0.0 0.0 1.0
    outer loop
      vertex -0.07846282243225844 0.015607225761290288 0.03
      vertex -0.08 9.797174393178826e-18 0.03
      vertex 0.0 0.0 0.03
    endloop
  endfacet
  facet normal 0.0 0.0 1.0
    outer loop
      vertex -0.08 9.797174393178826e-18 0.03
      vertex -0.07846282243225844 -0.01560722576129027 0.03
      vertex 0.0 0.0 0.03
    endloop
  endfacet
  facet normal -0.0 0.0 1.0
    outer loop
      vertex -0.07846282243225844 -0.01560722576129027 0.03
      vertex -0.07391036260090295 -0.030614674589207174 0.03
      vertex 0.0 0.0 0.03
    endloop
  endfacet
  facet normal -0.0 0.0 1.0
    outer loop
      vertex -0.07391036260090295 -0.030614674589207174 0.03
      vertex -0.06651756898420363 -0.04444561864156816 0.03
      vertex 0.0 0.0 0.03
    endloop
  endfacet
  facet normal -0.0 0.0 1.0
    outer loop
      vertex -0.06651756898420363 -0.04444561864156816 0.03
      vertex -0.05656854249492382 -0.056568542494923796 0.03
      vertex 0.0 0.0 0.03
    endloop
  endfacet
  facet normal -0.0 0.0 1.0
    outer loop
      vertex -0.05656854249492382 -0.056568542494923796 0.03
      vertex -0.04444561864156817 -0.06651756898420362 0.03
      vertex 0.0 0.0 0.03
    endloop
  endfacet
  facet normal -0.0 0.0 1.0
    outer loop
      vertex -0.04444561864156817 -0.06651756898420362 0.03
      vertex -0.030614674589207226 -0.07391036260090292 0.03
      vertex 0.0 0.0 0.03
    endloop
  endfacet
  facet normal -0.0 0.0 1.0
    outer loop
      vertex -0.030614674589207226 -0.07391036260090292 0.03
      vertex -0.015607225761290294 -0.07846282243225843 0.03
      vertex 0.0 0.0 0.03
    endloop
  endfacet
  facet normal -0.0 0.0 1.0
    outer loop
      vertex -0.015607225761290294 -0.07846282243225843 0.03
      vertex -1.4695761589768237e-17 -0.08 0.03
      vertex 0.0 0.0 0.03
    endloop
  endfacet
  facet normal 0.0 0.0 1.0
    outer loop
      vertex -1.4695761589768237e-17 -0.08 0.03
      vertex 0.015607225761290264 -0.07846282243225844 0.03
      vertex 0.0 0.0 0.03
    endloop
  endfacet
  facet normal 0.0 -0.0 1.0
    outer loop
      vertex 0.015607225761290264 -0.07846282243225844 0.03
      vertex 0.030614674589207202 -0.07391036260090293 0.03
      vertex 0.0 0.0 0.03
    endloop
  endfacet
  facet normal 0.0 -0.0 1.0
    outer loop
      vertex 0.030614674589207202 -0.07391036260090293 0.03
      vertex 0.044445618641568145 -0.06651756898420363 0.03
      vertex 0.0 0.0 0.03
    endloop
  endfacet
  facet normal 0.0 -0.0 1.0
    outer loop
      vertex 0.044445618641568145 -0.06651756898420363 0.03
      vertex 0.05656854249492379 -0.05656854249492382 0.03
      vertex 0.0 0.0 0.03
    endloop
  endfacet
  facet normal 0.0 -0.0 1.0
    outer loop
      vertex 0.05656854249492379 -0.05656854249492382 0.03
      vertex 0.06651756898420362 -0.04444561864156817 0.03
      vertex 0.0 0.0 0.03
    endloop
  endfacet
  facet normal 0.0 -0.0 1.0
    outer loop
      vertex 0.06651756898420362 -0.04444561864156817 0.03
      vertex 0.07391036260090292 -0.030614674589207233 0.03
      vertex 0.0 0.0 0.03
    endloop
  endfacet
  facet normal 0.0 -0.0 1.0
    outer loop
      vertex 0.07391036260090292 -0.030614674589207233 0.03
      vertex 0.07846282243225843 -0.015607225761290299 0.03
      vertex 0.0 0.0 0.03
    endloop
  endfacet
  facet normal 0.0 -0.0 1.0
    outer loop
      vertex 0.07846282243225843 -0.015607225761290299 0.03
      vertex 0.08 -1.959434878635765e-17 0.03
      vertex 0.0 0.0 0.03
    endloop
  endfacet
  facet normal 0.0 -0.0 -1.0
    outer loop
      vertex 0.07846282243225844 0.01560722576129026 -0.03
      vertex 0.08 0.0 -0.03
      vertex 0.0 0.0 -0.03
    endloop
  endfacet
  facet normal 0.0 -0.0 -1.0
    outer loop
      vertex 0.07391036260090295 0.030614674589207184 -0.03
      vertex 0.07846282243225844 0.01560722576129026 -0.03
      vertex 0.0 0.0 -0.03
    endloop
  endfacet
  facet normal 0.0 -0.0 -1.0
    outer loop
      vertex 0.06651756898420362 0.04444561864156817 -0.03
      vertex 0.07391036260090295 0.030614674589207184 -0.03
      vertex 0.0 0.0 -0.03
    endloop
  endfacet
  facet normal 0.0 -0.0 -1.0
    outer loop
      vertex 0.05656854249492381 0.056568542494923796 -0.03
      vertex 0.06651756898420362 0.04444561864156817 -0.03
      vertex 0.0 0.0 -0.03
    endloop
  endfacet
  facet normal 0.0 -0.0 -1.0
    outer loop
      vertex 0.04444561864156819 0.06651756898420362 -0.03
      vertex 0.05656854249492381 0.056568542494923796 -0.03
      vertex 0.0 0.0 -0.03
    endloop
  endfacet
  facet normal 0.0 -0.0 -1.0
    outer loop
      vertex 0.030614674589207188 0.07391036260090295 -0.03
      vertex 0.04444561864156819 0.06651756898420362 -0.03
      vertex 0.0 0.0 -0.03
    endloop
  endfacet
  facet normal 0.0 -0.0 -1.0
    outer loop
      vertex 0.015607225761290268 0.07846282243225844 -0.03
      vertex 0.030614674589207188 0.07391036260090295 -0.03
      vertex 0.0 0.0 -0.03
    endloop
  endfacet
  facet normal 0.0 -0.0 -1.0
    outer loop
      vertex 4.898587196589413e-18 0.08 -0.03
      vertex 0.015607225761290268 0.07846282243225844 -0.03
      vertex 0.0 0.0 -0.03
    endloop
  endfacet
  facet normal 0.0 0.0 -1.0
    outer loop
      vertex -0.015607225761290255 0.07846282243225844 -0.03
      vertex 4.898587196589413e-18 0.08 -0.03
      vertex 0.0 0.0 -0.03
    endloop
  endfacet
  facet normal 0.0 0.0 -1.0
    outer loop
      vertex -0.030614674589207178 0.07391036260090295 -0.03
      vertex -0.015607225761290255 0.07846282243225844 -0.03
      vertex 0.0 0.0 -0.03
    endloop
  endfacet
  facet normal 0.0 0.0 -1.0
    outer loop
      vertex -0.04444561864156816 0.06651756898420363 -0.03
      vertex -0.030614674589207178 0.07391036260090295 -0.03
      vertex 0.0 0.0 -0.03
    endloop
  endfacet
  facet normal 0.0 0.0 -1.0
    outer loop
      vertex -0.056568542494923796 0.05656854249492381 -0.03
      vertex -0.04444561864156816 0.06651756898420363 -0.03
      vertex 0.0 0.0 -0.03
    endloop
  endfacet
  facet normal 0.0 0.0 -1.0
    outer loop
      vertex -0.06651756898420363 0.04444561864156817 -0.03
      vertex -0.056568542494923796 0.05656854249492381 -0.03
      vertex 0.0 0.0 -0.03
    endloop
  endfacet
  facet normal 0.0 0.0 -1.0
    outer loop
      vertex -0.07391036260090295 0.03061467458920719 -0.03
      vertex -0.06651756898420363 0.04444561864156817 -0.03
      vertex 0.0 0.0 -0.03
    endloop
  endfacet
  facet normal 0.0 0.0 -1.0
    outer loop
      vertex -0.07846282243225844 0.015607225761290288 -0.03
      vertex -0.07391036260090295 0.03061467458920719 -0.03
      vertex 0.0 0.0 -0.03
    endloop
  endfacet
  facet normal 0.0 0.0 -1.0
    outer loop
      vertex -0.08 9.797174393178826e-18 -0.03
      vertex -0.07846282243225844 0.015607225761290288 -0.03
      vertex 0.0 0.0 -0.03
    endloop
  endfacet
  facet normal 0.0 0.0 -1.0
    outer loop
      vertex -0.07846282243225844 -0.01560722576129027 -0.03
      vertex -0.08 9.797174393178826e-18 -0.03
      vertex 0.0 0.0 -0.03
    endloop
  endfacet
  facet normal 0.0 0.0 -1.0
    outer loop
      vertex -0.07391036260090295 -0.030614674589207174 -0.03
      vertex -0.07846282243225844 -0.01560722576129027 -0.03
      vertex 0.0 0.0 -0.03
    endloop
  endfacet
  facet normal 0.0 0.0 -1.0
    outer loop
      vertex -0.06651756898420363 -0.04444561864156816 -0.03
      vertex -0.07391036260090295 -0.030614674589207174 -0.03
      vertex 0.0 0.0 -0.03
    endloop
  endfacet
  facet normal 0.0 0.0 -1.0
    outer loop
      vertex -0.05656854249492382 -0.056568542494923796 -0.03
      vertex -0.06651756898420363 -0.04444561864156816 -0.03
      vertex 0.0 0.0 -0.03
    endloop
  endfacet
  facet normal 0.0 0.0 -1.0
    outer loop
      vertex -0.04444561864156817 -0.06651756898420362 -0.03
      vertex -0.05656854249492382 -0.056568542494923796 -0.03
      vertex 0.0 0.0 -0.03
    endloop
  endfacet
  facet normal 0.0 0.0 -1.0
    outer loop
      vertex -0.030614674589207226 -0.07391036260090292 -0.03
      vertex -0.04444561864156817 -0.06651756898420362 -0.03
      vertex 0.0 0.0 -0.03
    endloop
  endfacet
  facet normal 0.0 0.0 -1.0
    outer loop
      vertex -0.015607225761290294 -0.07846282243225843 -0.03
      vertex -0.030614674589207226 -0.07391036260090292 -0.03
      vertex 0.0 0.0 -0.03
    endloop
  endfacet
  facet normal 0.0 0.0 -1.0
    outer loop
      vertex -1.4695761589768237e-17 -0.08 -0.03
      vertex -0.015607225761290294 -0.07846282243225843 -0.03
      vertex 0.0 0.0 -0.03
    endloop
  endfacet
  facet normal -0.0 0.0 -1.0
    outer loop
      vertex 0.015607225761290264 -0.07846282243225844 -0.03
      vertex -1.4695761589768237e-17 -0.08 -0.03
      vertex 0.0 0.0 -0.03
    endloop
  endfacet
  facet normal -0.0 0.0 -1.0
    outer loop
      vertex 0.030614674589207202 -0.07391036260090293 -0.03
      vertex 0.015607225761290264 -0.07846282243225844 -0.03
      vertex 0.0 0.0 -0.03
    endloop
  endfacet
  facet normal -0.0 0.0 -1.0
    outer loop
      vertex 0.044445618641568145 -0.06651756898420363 -0.03
      vertex 0.030614674589207202 -0.07391036260090293 -0.03
      vertex 0.0 0.0 -0.03
    endloop
  endfacet
  facet normal -0.0 0.0 -1.0
    outer loop
      vertex 0.05656854249492379 -0.05656854249492382 -0.03
      vertex 0.044445618641568145 -0.06651756898420363 -0.03
      vertex 0.0 0.0 -0.03
    endloop
  endfacet
  facet normal -0.0 0.0 -1.0
    outer loop
      vertex 0.06651756898420362 -0.04444561864156817 -0.03
      vertex 0.05656854249492379 -0.05656854249492382 -0.03
      vertex 0.0 0.0 -0.03
    endloop
  endfacet
  facet normal -0.0 0.0 -1.0
    outer loop
      vertex 0.07391036260090292 -0.030614674589207233 -0.03
      vertex 0.06651756898420362 -0.04444561864156817 -0.03
      vertex 0.0 0.0 -0.03
    endloop
  endfacet
  facet normal -0.0 0.0 -1.0
    outer loop
      vertex 0.07846282243225843 -0.015607225761290299 -0.03
      vertex 0.07391036260090292 -0.030614674589207233 -0.03
      vertex 0.0 0.0 -0.03
    endloop
  endfacet
  facet normal -0.0 0.0 -1.0
    outer loop
      vertex 0.08 -1.959434878635765e-17 -0.03
      vertex 0.07846282243225843 -0.015607225761290299 -0.03
      vertex 0.0 0.0 -0.03
    endloop
  endfacet
endsolid cylinder
