solid cylinder
  facet normal 0.9951847266721969 0.0980171403295607 0.0
    outer loop
      vertex 0.1 0.0 -0.025
      vertex 0.09807852804032305 0.019509032201612826 -0.025
      vertex 0.09807852804032305 0.019509032201612826 0.025
    endloop
  endfacet
  facet normal 0.9951847266721969 0.0980171403295607 -0.0
    outer loop
      vertex 0.1 0.0 -0.025
      vertex 0.09807852804032305 0.019509032201612826 0.025
      vertex 0.1 0.0 0.025
    endloop
  endfacet
  facet normal 0.9569403357322089 0.29028467725446216 0.0
    outer loop
      vertex 0.09807852804032305 0.019509032201612826 -0.025
      vertex 0.09238795325112868 0.03826834323650898 -0.025
      vertex 0.09238795325112868 0.03826834323650898 0.025
    endloop
  endfacet
  facet normal 0.9569403357322089 0.29028467725446216 -0.0
    outer loop
      vertex 0.09807852804032305 0.019509032201612826 -0.025
      vertex 0.09238795325112868 0.03826834323650898 0.025
      vertex 0.09807852804032305 0.019509032201612826 0.025
    endloop
  endfacet
  facet normal 0.8819212643483548 0.4713967368259979 0.0
    outer loop
      vertex 0.09238795325112868 0.03826834323650898 -0.025
      vertex 0.08314696123025453 0.05555702330196022 -0.025
      vertex 0.08314696123025453 0.05555702330196022 0.025
    endloop
  endfacet
  facet normal 0.8819212643483548 0.4713967368259979 -0.0
    outer loop
      vertex 0.09238795325112868 0.03826834323650898 -0.025
      vertex 0.08314696123025453 0.05555702330196022 0.025
      vertex 0.09238795325112868 0.03826834323650898 0.025
    endloop
  endfacet
  facet normal 0.7730104533627372 0.634393284163645 0.0
    outer loop
      vertex 0.08314696123025453 0.05555702330196022 -0.025
      vertex 0.07071067811865477 0.07071067811865475 -0.025
      vertex 0.07071067811865477 0.07071067811865475 0.025
    endloop
  endfacet
  facet normal 0.7730104533627372 0.634393284163645 -0.0
    outer loop
      vertex 0.08314696123025453 0.05555702330196022 -0.025
      vertex 0.07071067811865477 0.07071067811865475 0.025
      vertex 0.08314696123025453 0.05555702330196022 0.025
    endloop
  endfacet
  facet normal 0.6343932841636456 0.7730104533627369 0.0
    outer loop
      vertex 0.07071067811865477 0.07071067811865475 -0.025
      vertex 0.05555702330196023 0.08314696123025453 -0.025
      vertex 0.05555702330196023 0.08314696123025453 0.025
    endloop
  endfacet
  facet normal 0.6343932841636456 0.7730104533627369 -0.0
    outer loop
      vertex 0.07071067811865477 0.07071067811865475 -0.025
      vertex 0.05555702330196023 0.08314696123025453 0.025
      vertex 0.07071067811865477 0.07071067811865475 0.025
    endloop
  endfacet
  facet normal 0.4713967368259977 0.8819212643483549 0.0
    outer loop
      vertex 0.05555702330196023 0.08314696123025453 -0.025
      vertex 0.03826834323650899 0.09238795325112868 -0.025
      vertex 0.03826834323650899 0.09238795325112868 0.025
    endloop
  endfacet
  facet normal 0.4713967368259977 0.8819212643483549 -0.0
    outer loop
      vertex 0.05555702330196023 0.08314696123025453 -0.025
      vertex 0.03826834323650899 0.09238795325112868 0.025
      vertex 0.05555702330196023 0.08314696123025453 0.025
    endloop
  endfacet
  facet normal 0.29028467725446216 0.9569403357322089 0.0
    outer loop
      vertex 0.03826834323650899 0.09238795325112868 -0.025
      vertex 0.019509032201612833 0.09807852804032305 -0.025
      vertex 0.019509032201612833 0.09807852804032305 0.025
    endloop
  endfacet
  facet normal 0.29028467725446216 0.9569403357322089 -0.0
    outer loop
      vertex 0.03826834323650899 0.09238795325112868 -0.025
      vertex 0.019509032201612833 0.09807852804032305 0.025
      vertex 0.03826834323650899 0.09238795325112868 0.025
    endloop
  endfacet
  facet normal 0.0980171403295607 0.9951847266721969 0.0
    outer loop
      vertex 0.019509032201612833 0.09807852804032305 -0.025
      vertex 6.123233995736766e-18 0.1 -0.025
      vertex 6.123233995736766e-18 0.1 0.025
    endloop
  endfacet
  facet normal 0.0980171403295607 0.9951847266721969 -0.0
    outer loop
      vertex 0.019509032201612833 0.09807852804032305 -0.025
      vertex 6.123233995736766e-18 0.1 0.025
      vertex 0.019509032201612833 0.09807852804032305 0.025
    endloop
  endfacet
  facet normal -0.0980171403295607 0.9951847266721969 0.0
    outer loop
      vertex 6.123233995736766e-18 0.1 -0.025
      vertex -0.01950903220161282 0.09807852804032305 -0.025
      vertex -0.01950903220161282 0.09807852804032305 0.025
    endloop
  endfacet
  facet normal -0.0980171403295607 0.9951847266721969 0.0
    outer loop
      vertex 6.123233995736766e-18 0.1 -0.025
      vertex -0.01950903220161282 0.09807852804032305 0.025
      vertex 6.123233995736766e-18 0.1 0.025
    endloop
  endfacet
  facet normal -0.29028467725446216 0.9569403357322089 0.0
    outer loop
      vertex -0.01950903220161282 0.09807852804032305 -0.025
      vertex -0.038268343236508975 0.09238795325112868 -0.025
      vertex -0.038268343236508975 0.09238795325112868 0.025
    endloop
  endfacet
  facet normal -0.29028467725446216 0.9569403357322089 0.0
    outer loop
      vertex -0.01950903220161282 0.09807852804032305 -0.025
      vertex -0.038268343236508975 0.09238795325112868 0.025
      vertex -0.01950903220161282 0.09807852804032305 0.025
    endloop
  endfacet
  facet normal -0.47139673682599703 0.8819212643483552 0.0
    outer loop
      vertex -0.038268343236508975 0.09238795325112868 -0.025
      vertex -0.0555570233019602 0.08314696123025456 -0.025
      vertex -0.0555570233019602 0.08314696123025456 0.025
    endloop
  endfacet
  facet normal -0.47139673682599703 0.8819212643483552 0.0
    outer loop
      vertex -0.038268343236508975 0.09238795325112868 -0.025
      vertex -0.0555570233019602 0.08314696123025456 0.025
      vertex -0.038268343236508975 0.09238795325112868 0.025
    endloop
  endfacet
  facet normal -0.6343932841636455 0.773010453362737 0.0
    outer loop
      vertex -0.0555570233019602 0.08314696123025456 -0.025
      vertex -0.07071067811865475 0.07071067811865477 -0.025
      vertex -0.07071067811865475 0.07071067811865477 0.025
    endloop
  endfacet
  facet normal -0.6343932841636455 0.773010453362737 0.0
    outer loop
      vertex -0.0555570233019602 0.08314696123025456 -0.025
      vertex -0.07071067811865475 0.07071067811865477 0.025
      vertex -0.0555570233019602 0.08314696123025456 0.025
    endloop
  endfacet
  facet normal -0.7730104533627369 0.6343932841636457 0.0
    outer loop
      vertex -0.07071067811865475 0.07071067811865477 -0.025
      vertex -0.08314696123025454 0.05555702330196022 -0.025
      vertex -0.08314696123025454 0.05555702330196022 0.025
    endloop
  endfacet
  facet normal -0.7730104533627369 0.6343932841636457 0.0
    outer loop
      vertex -0.07071067811865475 0.07071067811865477 -0.025
      vertex -0.08314696123025454 0.05555702330196022 0.025
      vertex -0.07071067811865475 0.07071067811865477 0.025
    endloop
  endfacet
  facet normal -0.8819212643483552 0.4713967368259975 0.0
    outer loop
      vertex -0.08314696123025454 0.05555702330196022 -0.025
      vertex -0.09238795325112868 0.03826834323650899 -0.025
      vertex -0.09238795325112868 0.03826834323650899 0.025
    endloop
  endfacet
  facet normal -0.8819212643483552 0.4713967368259975 0.0
    outer loop
      vertex -0.08314696123025454 0.05555702330196022 -0.025
      vertex -0.09238795325112868 0.03826834323650899 0.025
      vertex -0.08314696123025454 0.05555702330196022 0.025
    endloop
  endfacet
  facet normal -0.9569403357322088 0.29028467725446255 0.0
    outer loop
      vertex -0.09238795325112868 0.03826834323650899 -0.025
      vertex -0.09807852804032305 0.01950903220161286 -0.025
      vertex -0.09807852804032305 0.01950903220161286 0.025
    endloop
  endfacet
  facet normal -0.9569403357322088 0.29028467725446255 0.0
    outer loop
      vertex -0.09238795325112868 0.03826834323650899 -0.025
      vertex -0.09807852804032305 0.01950903220161286 0.025
      vertex -0.09238795325112868 0.03826834323650899 0.025
    endloop
  endfacet
  facet normal -0.9951847266721968 0.09801714032956059 0.0
    outer loop
      vertex -0.09807852804032305 0.01950903220161286 -0.025
      vertex -0.1 1.2246467991473533e-17 -0.025
      vertex -0.1 1.2246467991473533e-17 0.025
    endloop
  endfacet
  facet normal -0.9951847266721968 0.09801714032956059 0.0
    outer loop
      vertex -0.09807852804032305 0.01950903220161286 -0.025
      vertex -0.1 1.2246467991473533e-17 0.025
      vertex -0.09807852804032305 0.01950903220161286 0.025
    endloop
  endfacet
  facet normal -0.995184726672197 -0.09801714032956059 0.0
    outer loop
      vertex -0.1 1.2246467991473533e-17 -0.025
      vertex -0.09807852804032305 -0.019509032201612837 -0.025
      vertex -0.09807852804032305 -0.019509032201612837 0.025
    endloop
  endfacet
  facet normal -0.995184726672197 -0.09801714032956059 0.0
    outer loop
      vertex -0.1 1.2246467991473533e-17 -0.025
      vertex -0.09807852804032305 -0.019509032201612837 0.025
      vertex -0.1 1.2246467991473533e-17 0.025
    endloop
  endfacet
  facet normal -0.956940335732209 -0.29028467725446183 0.0
    outer loop
      vertex -0.09807852804032305 -0.019509032201612837 -0.025
      vertex -0.0923879532511287 -0.03826834323650897 -0.025
      vertex -0.0923879532511287 -0.03826834323650897 0.025
    endloop
  endfacet
  facet normal -0.956940335732209 -0.29028467725446183 0.0
    outer loop
      vertex -0.09807852804032305 -0.019509032201612837 -0.025
      vertex -0.0923879532511287 -0.03826834323650897 0.025
      vertex -0.09807852804032305 -0.019509032201612837 0.025
    endloop
  endfacet
  facet normal -0.8819212643483552 -0.4713967368259975 0.0
    outer loop
      vertex -0.0923879532511287 -0.03826834323650897 -0.025
      vertex -0.08314696123025456 -0.0555570233019602 -0.025
      vertex -0.08314696123025456 -0.0555570233019602 0.025
    endloop
  endfacet
  facet normal -0.8819212643483552 -0.4713967368259975 0.0
    outer loop
      vertex -0.0923879532511287 -0.03826834323650897 -0.025
      vertex -0.08314696123025456 -0.0555570233019602 0.025
      vertex -0.0923879532511287 -0.03826834323650897 0.025
    endloop
  endfacet
  facet normal -0.773010453362737 -0.6343932841636455 0.0
    outer loop
      vertex -0.08314696123025456 -0.0555570233019602 -0.025
      vertex -0.07071067811865477 -0.07071067811865475 -0.025
      vertex -0.07071067811865477 -0.07071067811865475 0.025
    endloop
  endfacet
  facet normal -0.773010453362737 -0.6343932841636455 0.0
    outer loop
      vertex -0.08314696123025456 -0.0555570233019602 -0.025
      vertex -0.07071067811865477 -0.07071067811865475 0.025
      vertex -0.08314696123025456 -0.0555570233019602 0.025
    endloop
  endfacet
  facet normal -0.6343932841636453 -0.7730104533627372 0.0
    outer loop
      vertex -0.07071067811865477 -0.07071067811865475 -0.025
      vertex -0.05555702330196022 -0.08314696123025453 -0.025
      vertex -0.05555702330196022 -0.08314696123025453 0.025
    endloop
  endfacet
  facet normal -0.6343932841636453 -0.7730104533627372 0.0
    outer loop
      vertex -0.07071067811865477 -0.07071067811865475 -0.025
      vertex -0.05555702330196022 -0.08314696123025453 0.025
      vertex -0.07071067811865477 -0.07071067811865475 0.025
    endloop
  endfacet
  facet normal -0.471396736825998 -0.8819212643483548 0.0
    outer loop
      vertex -0.05555702330196022 -0.08314696123025453 -0.025
      vertex -0.03826834323650904 -0.09238795325112865 -0.025
      vertex -0.03826834323650904 -0.09238795325112865 0.025
    endloop
  endfacet
  facet normal -0.471396736825998 -0.8819212643483548 0.0
    outer loop
      vertex -0.05555702330196022 -0.08314696123025453 -0.025
      vertex -0.03826834323650904 -0.09238795325112865 0.025
      vertex -0.05555702330196022 -0.08314696123025453 0.025
    endloop
  endfacet
  facet normal -0.2902846772544626 -0.9569403357322087 0.0
    outer loop
      vertex -0.03826834323650904 -0.09238795325112865 -0.025
      vertex -0.019509032201612868 -0.09807852804032303 -0.025
      vertex -0.019509032201612868 -0.09807852804032303 0.025
    endloop
  endfacet
  facet normal -0.2902846772544626 -0.9569403357322087 0.0
    outer loop
      vertex -0.03826834323650904 -0.09238795325112865 -0.025
      vertex -0.019509032201612868 -0.09807852804032303 0.025
      vertex -0.03826834323650904 -0.09238795325112865 0.025
    endloop
  endfacet
  facet normal -0.09801714032956127 -0.9951847266721968 0.0
    outer loop
      vertex -0.019509032201612868 -0.09807852804032303 -0.025
      vertex -1.8369701987210297e-17 -0.1 -0.025
      vertex -1.8369701987210297e-17 -0.1 0.025
    endloop
  endfacet
  facet normal -0.09801714032956127 -0.9951847266721968 0.0
    outer loop
      vertex -0.019509032201612868 -0.09807852804032303 -0.025
      vertex -1.8369701987210297e-17 -0.1 0.025
      vertex -0.019509032201612868 -0.09807852804032303 0.025
    endloop
  endfacet
  facet normal 0.09801714032956059 -0.995184726672197 0.0
    outer loop
      vertex -1.8369701987210297e-17 -0.1 -0.025
      vertex 0.019509032201612833 -0.09807852804032305 -0.025
      vertex 0.019509032201612833 -0.09807852804032305 0.025
    endloop
  endfacet
  facet normal 0.09801714032956059 -0.995184726672197 0.0
    outer loop
      vertex -1.8369701987210297e-17 -0.1 -0.025
      vertex 0.019509032201612833 -0.09807852804032305 0.025
      vertex -1.8369701987210297e-17 -0.1 0.025
    endloop
  endfacet
  facet normal 0.2902846772544626 -0.9569403357322087 0.0
    outer loop
      vertex 0.019509032201612833 -0.09807852804032305 -0.025
      vertex 0.038268343236509 -0.09238795325112867 -0.025
      vertex 0.038268343236509 -0.09238795325112867 0.025
    endloop
  endfacet
  facet normal 0.2902846772544626 -0.9569403357322087 0.0
    outer loop
      vertex 0.019509032201612833 -0.09807852804032305 -0.025
      vertex 0.038268343236509 -0.09238795325112867 0.025
      vertex 0.019509032201612833 -0.09807852804032305 0.025
    endloop
  endfacet
  facet normal 0.47139673682599725 -0.8819212643483552 0.0
    outer loop
      vertex 0.038268343236509 -0.09238795325112867 -0.025
      vertex 0.05555702330196019 -0.08314696123025456 -0.025
      vertex 0.05555702330196019 -0.08314696123025456 0.025
    endloop
  endfacet
  facet normal 0.47139673682599725 -0.8819212643483552 0.0
    outer loop
      vertex 0.038268343236509 -0.09238795325112867 -0.025
      vertex 0.05555702330196019 -0.08314696123025456 0.025
      vertex 0.038268343236509 -0.09238795325112867 0.025
    endloop
  endfacet
  facet normal 0.6343932841636457 -0.7730104533627369 0.0
    outer loop
      vertex 0.05555702330196019 -0.08314696123025456 -0.025
      vertex 0.07071067811865474 -0.07071067811865477 -0.025
      vertex 0.07071067811865474 -0.07071067811865477 0.025
    endloop
  endfacet
  facet normal 0.6343932841636457 -0.7730104533627369 0.0
    outer loop
      vertex 0.05555702330196019 -0.08314696123025456 -0.025
      vertex 0.07071067811865474 -0.07071067811865477 0.025
      vertex 0.05555702330196019 -0.08314696123025456 0.025
    endloop
  endfacet
  facet normal 0.7730104533627369 -0.6343932841636457 0.0
    outer loop
      vertex 0.07071067811865474 -0.07071067811865477 -0.025
      vertex 0.08314696123025453 -0.05555702330196022 -0.025
      vertex 0.08314696123025453 -0.05555702330196022 0.025
    endloop
  endfacet
  facet normal 0.7730104533627369 -0.6343932841636457 0.0
    outer loop
      vertex 0.07071067811865474 -0.07071067811865477 -0.025
      vertex 0.08314696123025453 -0.05555702330196022 0.025
      vertex 0.07071067811865474 -0.07071067811865477 0.025
    endloop
  endfacet
  facet normal 0.8819212643483547 -0.4713967368259981 0.0
    outer loop
      vertex 0.08314696123025453 -0.05555702330196022 -0.025
      vertex 0.09238795325112865 -0.038268343236509045 -0.025
      vertex 0.09238795325112865 -0.038268343236509045 0.025
    endloop
  endfacet
  facet normal 0.8819212643483547 -0.4713967368259981 0.0
    outer loop
      vertex 0.08314696123025453 -0.05555702330196022 -0.025
      vertex 0.09238795325112865 -0.038268343236509045 0.025
      vertex 0.08314696123025453 -0.05555702330196022 0.025
    endloop
  endfacet
  facet normal 0.9569403357322087 -0.2902846772544626 0.0
    outer loop
      vertex 0.09238795325112865 -0.038268343236509045 -0.025
      vertex 0.09807852804032303 -0.019509032201612875 -0.025
      vertex 0.09807852804032303 -0.019509032201612875 0.025
    endloop
  endfacet
  facet normal 0.9569403357322087 -0.2902846772544626 0.0
    outer loop
      vertex 0.09238795325112865 -0.038268343236509045 -0.025
      vertex 0.09807852804032303 -0.019509032201612875 0.025
      vertex 0.09238795325112865 -0.038268343236509045 0.025
    endloop
  endfacet
  facet normal 0.9951847266721968 -0.09801714032956127 0.0
    outer loop
      vertex 0.09807852804032303 -0.019509032201612875 -0.025
      vertex 0.1 -2.4492935982947065e-17 -0.025
      vertex 0.1 -2.4492935982947065e-17 0.025
    endloop
  endfacet
  facet normal 0.9951847266721968 -0.09801714032956127 0.0
    outer loop
      vertex 0.09807852804032303 -0.019509032201612875 -0.025
      vertex 0.1 -2.4492935982947065e-17 0.025
      vertex 0.09807852804032303 -0.019509032201612875 0.025
    endloop
  endfacet
  facet normal 0.0 0.0 1.0
    outer loop
      vertex 0.1 0.0 0.025
      vertex 0.09807852804032305 0.019509032201612826 0.025
      vertex 0.0 0.0 0.025
    endloop
  endfacet
  facet normal 0.0 0.0 1.0
    outer loop
      vertex 0.09807852804032305 0.019509032201612826 0.025
      vertex 0.09238795325112868 0.03826834323650898 0.025
      vertex 0.0 0.0 0.025
    endloop
  endfacet
  facet normal 0.0 0.0 1.0
    outer loop
      vertex 0.09238795325112868 0.03826834323650898 0.025
      vertex 0.08314696123025453 0.05555702330196022 0.025
      vertex 0.0 0.0 0.025
    endloop
  endfacet
  facet normal 0.0 0.0 1.0
    outer loop
      vertex 0.08314696123025453 0.05555702330196022 0.025
      vertex 0.07071067811865477 0.07071067811865475 0.025
      vertex 0.0 0.0 0.025
    endloop
  endfacet
  facet normal 0.0 0.0 1.0
    outer loop
      vertex 0.07071067811865477 0.07071067811865475 0.025
      vertex 0.05555702330196023 0.08314696123025453 0.025
      vertex 0.0 0.0 0.025
    endloop
  endfacet
  facet normal 0.0 0.0 1.0
    outer loop
      vertex 0.05555702330196023 0.08314696123025453 0.025
      vertex 0.03826834323650899 0.09238795325112868 0.025
      vertex 0.0 0.0 0.025
    endloop
  endfacet
  facet normal 0.0 0.0 1.0
    outer loop
      vertex 0.03826834323650899 0.09238795325112868 0.025
      vertex 0.019509032201612833 0.09807852804032305 0.025
      vertex 0.0 0.0 0.025
    endloop
  endfacet
  facet normal 0.0 0.0 1.0
    outer loop
      vertex 0.019509032201612833 0.09807852804032305 0.025
      vertex 6.123233995736766e-18 0.1 0.025
      vertex 0.0 0.0 0.025
    endloop
  endfacet
  facet normal 0.0 0.0 1.0
    outer loop
      vertex 6.123233995736766e-18 0.1 0.025
      vertex -0.01950903220161282 0.09807852804032305 0.025
      vertex 0.0 0.0 0.025
    endloop
  endfacet
  facet normal 0.0 0.0 1.0
    outer loop
      vertex -0.01950903220161282 0.09807852804032305 0.025
      vertex -0.038268343236508975 0.09238795325112868 0.025
      vertex 0.0 0.0 0.025
    endloop
  endfacet
  facet normal 0.0 0.0 1.0
    outer loop
      vertex -0.038268343236508975 0.09238795325112868 0.025
      vertex -0.0555570233019602 0.08314696123025456 0.025
      vertex 0.0 0.0 0.025
    endloop
  endfacet
  facet normal 0.0 0.0 1.0
    outer loop
      vertex -0.0555570233019602 0.08314696123025456 0.025
      vertex -0.07071067811865475 0.07071067811865477 0.025
      vertex 0.0 0.0 0.025
    endloop
  endfacet
  facet normal 0.0 0.0 1.0
    outer loop
      vertex -0.07071067811865475 0.07071067811865477 0.025
      vertex -0.08314696123025454 0.05555702330196022 0.025
      vertex 0.0 0.0 0.025
    endloop
  endfacet
  facet normal 0.0 0.0 1.0
    outer loop
      vertex -0.08314696123025454 0.05555702330196022 0.025
      vertex -0.09238795325112868 0.03826834323650899 0.025
      vertex 0.0 0.0 0.025
    endloop
  endfacet
  facet normal 0.0 0.0 1.0
    outer loop
      vertex -0.09238795325112868 0.03826834323650899 0.025
      vertex -0.09807852804032305 0.01950903220161286 0.025
      vertex 0.0 0.0 0.025
    endloop
  endfacet
  facet normal 0.0 0.0 1.0
    outer loop
      vertex -0.09807852804032305 0.01950903220161286 0.025
      vertex -0.1 1.2246467991473533e-17 0.025
      vertex 0.0 0.0 0.025
    endloop
  endfacet
  facet normal 0.0 0.0 1.0
    outer loop
      vertex -0.1 1.2246467991473533e-17 0.025
      vertex -0.09807852804032305 -0.019509032201612837 0.025
      vertex 0.0 0.0 0.025
    endloop
  endfacet
  facet normal -0.0 0.0 1.0
    outer loop
      vertex -0.09807852804032305 -0.019509032201612837 0.025
      vertex -0.0923879532511287 -0.03826834323650897 0.025
      vertex 0.0 0.0 0.025
    endloop
  endfacet
  facet normal -0.0 0.0 1.0
    outer loop
      vertex -0.0923879532511287 -0.03826834323650897 0.025
      vertex -0.08314696123025456 -0.0555570233019602 0.025
      vertex 0.0 0.0 0.025
    endloop
  endfacet
  facet normal -0.0 0.0 1.0
    outer loop
      vertex -0.08314696123025456 -0.0555570233019602 0.025
      vertex -0.07071067811865477 -0.07071067811865475 0.025
      vertex 0.0 0.0 0.025
    endloop
  endfacet
  facet normal -0.0 0.0 1.0
    outer loop
      vertex -0.07071067811865477 -0.07071067811865475 0.025
      vertex -0.05555702330196022 -0.08314696123025453 0.025
      vertex 0.0 0.0 0.025
    endloop
  endfacet
  facet normal -0.0 0.0 1.0
    outer loop
      vertex -0.05555702330196022 -0.08314696123025453 0.025
      vertex -0.03826834323650904 -0.09238795325112865 0.025
      vertex 0.0 0.0 0.025
    endloop
  endfacet
  facet normal -0.0 0.0 1.0
    outer loop
      vertex -0.03826834323650904 -0.09238795325112865 0.025
      vertex -0.019509032201612868 -0.09807852804032303 0.025
      vertex 0.0 0.0 0.025
    endloop
  endfacet
  facet normal -0.0 0.0 1.0
    outer loop
      vertex -0.019509032201612868 -0.09807852804032303 0.025
      vertex -1.8369701987210297e-17 -0.1 0.025
      vertex 0.0 0.0 0.025
    endloop
  endfacet
  facet normal 0.0 0.0 1.0
    outer loop
      vertex -1.8369701987210297e-17 -0.1 0.025
      vertex 0.019509032201612833 -0.09807852804032305 0.025
      vertex 0.0 0.0 0.025
    endloop
  endfacet
  facet normal 0.0 -0.0 1.0
    outer loop
      vertex 0.019509032201612833 -0.09807852804032305 0.025
      vertex 0.038268343236509 -0.09238795325112867 0.025
      vertex 0.0 0.0 0.025
    endloop
  endfacet
  facet normal 0.0 -0.0 1.0
    outer loop
      vertex 0.038268343236509 -0.09238795325112867 0.025
      vertex 0.05555702330196019 -0.08314696123025456 0.025
      vertex 0.0 0.0 0.025
    endloop
  endfacet
  facet normal 0.0 -0.0 1.0
    outer loop
      vertex 0.05555702330196019 -0.08314696123025456 0.025
      vertex 0.07071067811865474 -0.07071067811865477 0.025
      vertex 0.0 0.0 0.025
    endloop
  endfacet
  facet normal 0.0 -0.0 1.0
    outer loop
      vertex 0.07071067811865474 -0.07071067811865477 0.025
      vertex 0.08314696123025453 -0.05555702330196022 0.025
      vertex 0.0 0.0 0.025
    endloop
  endfacet
  facet normal 0.0 -0.0 1.0
    outer loop
      vertex 0.08314696123025453 -0.05555702330196022 0.025
      vertex 0.09238795325112865 -0.038268343236509045 0.025
      vertex 0.0 0.0 0.025
    endloop
  endfacet
  facet normal 0.0 -0.0 1.0
    outer loop
      vertex 0.09238795325112865 -0.038268343236509045 0.025
      vertex 0.09807852804032303 -0.019509032201612875 0.025
      vertex 0.0 0.0 0.025
    endloop
  endfacet
  facet normal 0.0 -0.0 1.0
    outer loop
      vertex 0.09807852804032303 -0.019509032201612875 0.025
      vertex 0.1 -2.4492935982947065e-17 0.025
      vertex 0.0 0.0 0.025
    endloop
  endfacet
  facet normal 0.0 -0.0 -1.0
    outer loop
      vertex 0.09807852804032305 0.019509032201612826 -0.025
      vertex 0.1 0.0 -0.025
      vertex 0.0 0.0 -0.025
    endloop
  endfacet
  facet normal 0.0 -0.0 -1.0
    outer loop
      vertex 0.09238795325112868 0.03826834323650898 -0.025
      vertex 0.09807852804032305 0.019509032201612826 -0.025
      vertex 0.0 0.0 -0.025
    endloop
  endfacet
  facet normal 0.0 -0.0 -1.0
    outer loop
      vertex 0.08314696123025453 0.05555702330196022 -0.025
      vertex 0.09238795325112868 0.03826834323650898 -0.025
      vertex 0.0 0.0 -0.025
    endloop
  endfacet
  facet normal 0.0 -0.0 -1.0
    outer loop
      vertex 0.07071067811865477 0.07071067811865475 -0.025
      vertex 0.08314696123025453 0.05555702330196022 -0.025
      vertex 0.0 0.0 -0.025
    endloop
  endfacet
  facet normal 0.0 -0.0 -1.0
    outer loop
      vertex 0.05555702330196023 0.08314696123025453 -0.025
      vertex 0.07071067811865477 0.07071067811865475 -0.025
      vertex 0.0 0.0 -0.025
    endloop
  endfacet
  facet normal 0.0 -0.0 -1.0
    outer loop
      vertex 0.03826834323650899 0.09238795325112868 -0.025
      vertex 0.05555702330196023 0.08314696123025453 -0.025
      vertex 0.0 0.0 -0.025
    endloop
  endfacet
  facet normal 0.0 -0.0 -1.0
    outer loop
      vertex 0.019509032201612833 0.09807852804032305 -0.025
      vertex 0.03826834323650899 0.09238795325112868 -0.025
      vertex 0.0 0.0 -0.025
    endloop
  endfacet
  facet normal 0.0 -0.0 -1.0
    outer loop
      vertex 6.123233995736766e-18 0.1 -0.025
      vertex 0.019509032201612833 0.09807852804032305 -0.025
      vertex 0.0 0.0 -0.025
    endloop
  endfacet
  facet normal 0.0 0.0 -1.0
    outer loop
      vertex -0.01950903220161282 0.09807852804032305 -0.025
      vertex 6.123233995736766e-18 0.1 -0.025
      vertex 0.0 0.0 -0.025
    endloop
  endfacet
  facet normal 0.0 0.0 -1.0
    outer loop
      vertex -0.038268343236508975 0.09238795325112868 -0.025
      vertex -0.01950903220161282 0.09807852804032305 -0.025
      vertex 0.0 0.0 -0.025
    endloop
  endfacet
  facet normal 0.0 0.0 -1.0
    outer loop
      vertex -0.0555570233019602 0.08314696123025456 -0.025
      vertex -0.038268343236508975 0.09238795325112868 -0.025
      vertex 0.0 0.0 -0.025
    endloop
  endfacet
  facet normal 0.0 0.0 -1.0
    outer loop
      vertex -0.07071067811865475 0.07071067811865477 -0.025
      vertex -0.0555570233019602 0.08314696123025456 -0.025
      vertex 0.0 0.0 -0.025
    endloop
  endfacet
  facet normal 0.0 0.0 -1.0
    outer loop
      vertex -0.08314696123025454 0.05555702330196022 -0.025
      vertex -0.07071067811865475 0.07071067811865477 -0.025
      vertex 0.0 0.0 -0.025
    endloop
  endfacet
  facet normal 0.0 0.0 -1.0
    outer loop
      vertex -0.09238795325112868 0.03826834323650899 -0.025
      vertex -0.08314696123025454 0.05555702330196022 -0.025
      vertex 0.0 0.0 -0.025
    endloop
  endfacet
  facet normal 0.0 0.0 -1.0
    outer loop
      vertex -0.09807852804032305 0.01950903220161286 -0.025
      vertex -0.09238795325112868 0.03826834323650899 -0.025
      vertex 0.0 0.0 -0.025
    endloop
  endfacet
  facet normal 0.0 0.0 -1.0
    outer loop
      vertex -0.1 1.2246467991473533e-17 -0.025
      vertex -0.09807852804032305 0.01950903220161286 -0.025
      vertex 0.0 0.0 -0.025
    endloop
  endfacet
  facet normal 0.0 0.0 -1.0
    outer loop
      vertex -0.09807852804032305 -0.019509032201612837 -0.025
      vertex -0.1 1.2246467991473533e-17 -0.025
      vertex 0.0 0.0 -0.025
    endloop
  endfacet
  facet normal 0.0 0.0 -1.0
    outer loop
      vertex -0.0923879532511287 -0.03826834323650897 -0.025
      vertex -0.09807852804032305 -0.019509032201612837 -0.025
      vertex 0.0 0.0 -0.025
    endloop
  endfacet
  facet normal 0.0 0.0 -1.0
    outer loop
      vertex -0.08314696123025456 -0.0555570233019602 -0.025
      vertex -0.0923879532511287 -0.03826834323650897 -0.025
      vertex 0.0 0.0 -0.025
    endloop
  endfacet
  facet normal 0.0 0.0 -1.0
    outer loop
      vertex -0.07071067811865477 -0.07071067811865475 -0.025
      vertex -0.08314696123025456 -0.0555570233019602 -0.025
      vertex 0.0 0.0 -0.025
    endloop
  endfacet
  facet normal 0.0 0.0 -1.0
    outer loop
      vertex -0.05555702330196022 -0.08314696123025453 -0.025
      vertex -0.07071067811865477 -0.07071067811865475 -0.025
      vertex 0.0 0.0 -0.025
    endloop
  endfacet
  facet normal 0.0 0.0 -1.0
    outer loop
      vertex -0.03826834323650904 -0.09238795325112865 -0.025
      vertex -0.05555702330196022 -0.08314696123025453 -0.025
      vertex 0.0 0.0 -0.025
    endloop
  endfacet
  facet normal 0.0 0.0 -1.0
    outer loop
      vertex -0.019509032201612868 -0.09807852804032303 -0.025
      vertex -0.03826834323650904 -0.09238795325112865 -0.025
      vertex 0.0 0.0 -0.025
    endloop
  endfacet
  facet normal 0.0 0.0 -1.0
    outer loop
      vertex -1.8369701987210297e-17 -0.1 -0.025
      vertex -0.019509032201612868 -0.09807852804032303 -0.025
      vertex 0.0 0.0 -0.025
    endloop
  endfacet
  facet normal -0.0 0.0 -1.0
    outer loop
      vertex 0.019509032201612833 -0.09807852804032305 -0.025
      vertex -1.8369701987210297e-17 -0.1 -0.025
      vertex 0.0 0.0 -0.025
    endloop
  endfacet
  facet normal -0.0 0.0 -1.0
    outer loop
      vertex 0.038268343236509 -0.09238795325112867 -0.025
      vertex 0.019509032201612833 -0.09807852804032305 -0.025
      vertex 0.0 0.0 -0.025
    endloop
  endfacet
  facet normal -0.0 0.0 -1.0
    outer loop
      vertex 0.05555702330196019 -0.08314696123025456 -0.025
      vertex 0.038268343236509 -0.09238795325112867 -0.025
      vertex 0.0 0.0 -0.025
    endloop
  endfacet
  facet normal -0.0 0.0 -1.0
    outer loop
      vertex 0.07071067811865474 -0.07071067811865477 -0.025
      vertex 0.05555702330196019 -0.08314696123025456 -0.025
      vertex 0.0 0.0 -0.025
    endloop
  endfacet
  facet normal -0.0 0.0 -1.0
    outer loop
      vertex 0.08314696123025453 -0.05555702330196022 -0.025
      vertex 0.07071067811865474 -0.07071067811865477 -0.025
      vertex 0.0 0.0 -0.025
    endloop
  endfacet
  facet normal -0.0 0.0 -1.0
    outer loop
      vertex 0.09238795325112865 -0.038268343236509045 -0.025
      vertex 0.08314696123025453 -0.05555702330196022 -0.025
      vertex 0.0 0.0 -0.025
    endloop
  endfacet
  facet normal -0.0 0.0 -1.0
    outer loop
      vertex 0.09807852804032303 -0.019509032201612875 -0.025
      vertex 0.09238795325112865 -0.038268343236509045 -0.025
      vertex 0.0 0.0 -0.025
    endloop
  endfacet
  facet normal -0.0 0.0 -1.0
    outer loop
      vertex 0.1 -2.4492935982947065e-17 -0.025
      vertex 0.09807852804032303 -0.019509032201612875 -0.025
      vertex 0.0 0.0 -0.025
    endloop
  endfacet
endsolid cylinder
